<?xml version="1.0" standalone="no"?>
<!DOCTYPE svg PUBLIC "-//W3C//DTD SVG 20010904//EN"
 "http://www.w3.org/TR/2001/REC-SVG-20010904/DTD/svg10.dtd">
<svg version="1.0" xmlns="http://www.w3.org/2000/svg"
 width="229.000000pt" height="229.000000pt" viewBox="0 0 229.000000 229.000000"
 preserveAspectRatio="xMidYMid meet">
<metadata>
Created by potrace 1.14, written by Peter Selinger 2001-2017
</metadata>
<g transform="translate(0.000000,229.000000) scale(0.100000,-0.100000)"
fill="#000000" stroke="none">
<path d="M1000 2215 c-238 -51 -424 -199 -524 -417 -50 -108 -69 -188 -71
-308 -3 -231 79 -421 252 -579 130 -119 324 -191 503 -185 47 1 94 5 105 7
222 52 371 149 484 316 46 67 97 178 106 231 3 18 7 36 9 39 8 12 18 108 17
156 -4 253 -115 474 -308 611 -62 45 -189 109 -234 118 -13 3 -46 9 -73 14
-66 13 -199 12 -266 -3z"/>
<path d="M522 692 c-8 -2 -12 -31 -12 -89 0 -75 2 -84 18 -81 11 2 18 14 20
36 3 28 7 32 32 32 38 0 50 30 12 31 -15 1 -30 1 -34 0 -5 0 -8 8 -8 18 0 16
8 20 38 23 25 2 37 8 37 18 0 11 -12 15 -45 16 -26 0 -51 -1 -58 -4z"/>
<path d="M1031 688 c5 -40 -1 -47 -35 -41 -30 5 -36 2 -49 -23 -10 -20 -11
-38 -6 -60 12 -41 28 -48 84 -33 6 1 18 -1 28 -6 10 -4 19 -6 21 -4 2 2 1 43
-2 92 -4 77 -7 87 -24 87 -10 0 -18 -6 -17 -12z m-3 -97 c4 -25 -13 -42 -34
-34 -19 7 -26 34 -13 50 17 20 43 12 47 -16z"/>
<path d="M1382 683 c3 -17 38 -26 38 -10 0 4 0 12 0 17 0 6 -9 10 -21 10 -14
0 -19 -5 -17 -17z"/>
<path d="M1507 686 c-3 -8 -3 -17 0 -20 7 -7 33 13 33 25 0 15 -27 10 -33 -5z"/>
<path d="M638 609 c-2 -23 1 -51 7 -63 11 -22 50 -30 72 -14 6 5 14 5 18 -2 3
-5 13 -10 21 -10 13 0 14 16 5 123 -1 4 -9 7 -19 7 -16 0 -19 -7 -17 -40 1
-22 -4 -45 -10 -50 -20 -17 -41 12 -39 53 2 30 -2 37 -16 37 -14 0 -19 -10
-22 -41z"/>
<path d="M794 586 c1 -49 4 -61 19 -64 18 -4 21 8 18 61 0 15 3 28 9 29 31 4
35 1 37 -32 0 -19 2 -41 2 -48 1 -8 9 -12 18 -10 13 2 18 14 20 48 3 67 -8 78
-70 78 l-54 -1 1 -61z"/>
<path d="M1113 644 c-23 -10 -3 -33 20 -25 24 9 47 4 47 -10 0 -5 -16 -9 -35
-9 -43 0 -63 -33 -37 -62 17 -20 47 -24 57 -8 4 6 13 5 26 -3 25 -15 41 5 30
37 -5 12 -6 27 -4 34 12 34 -57 65 -104 46z m67 -73 c0 -6 -5 -13 -10 -16 -15
-9 -43 3 -35 15 8 13 45 13 45 1z"/>
<path d="M1258 633 c-24 -28 -26 -46 -11 -75 16 -32 54 -45 89 -29 32 14 31
33 -3 31 -45 -3 -50 -1 -56 20 -7 25 18 40 56 33 31 -6 37 11 8 27 -30 15 -66
12 -83 -7z"/>
<path d="M1384 588 c1 -51 4 -63 19 -66 17 -3 19 2 19 53 0 67 -2 75 -20 75
-16 0 -18 -9 -18 -62z"/>
<path d="M1460 628 c-16 -17 -19 -30 -14 -53 9 -41 32 -56 73 -51 82 12 74
126 -9 126 -17 0 -38 -9 -50 -22z m74 -30 c15 -24 -10 -51 -35 -37 -22 11 -24
30 -7 47 15 15 28 11 42 -10z"/>
<path d="M1599 631 c-1 -19 -1 -93 0 -103 1 -5 10 -8 20 -8 16 0 19 6 16 40
-2 31 1 43 15 50 22 12 30 13 29 3 -1 -5 0 -12 1 -18 1 -5 3 -23 3 -40 1 -18
8 -31 18 -33 13 -2 17 7 18 51 1 66 -8 76 -71 75 -37 -1 -48 -5 -49 -17z"/>
<path d="M450 485 c0 -27 4 -32 23 -31 54 3 61 46 9 57 -31 6 -32 5 -32 -26z"/>
<path d="M1765 510 l-30 -5 0 -140 0 -140 33 -3 c32 -3 32 -3 33 45 1 26 1 55
0 63 -1 21 11 36 36 44 30 9 40 -14 38 -91 l-1 -63 32 0 32 0 1 75 c1 87 -10
122 -41 134 -26 9 -78 -3 -89 -21 -5 -7 -9 14 -11 47 l-3 60 -30 -5z"/>
<path d="M1998 512 c-12 -2 -18 -13 -18 -31 0 -27 10 -31 61 -22 3 1 5 12 5
25 0 25 -17 35 -48 28z"/>
<path d="M109 490 c0 -8 -1 -55 -3 -104 -3 -99 -15 -120 -66 -110 -29 6 -45
-13 -34 -41 9 -21 80 -23 121 -3 38 19 46 54 44 194 l-1 82 -30 -2 c-19 0 -30
-6 -31 -16z"/>
<path d="M1516 483 c-84 -54 -85 -174 -2 -238 31 -24 43 -27 87 -23 48 5 99
31 103 53 0 5 -11 16 -26 24 -25 14 -29 14 -40 -1 -26 -34 -93 -22 -109 19
-26 69 4 127 66 127 24 0 42 -6 50 -17 12 -16 14 -16 36 3 l24 20 -28 25 c-15
14 -33 25 -40 26 -67 6 -87 3 -121 -18z"/>
<path d="M267 430 c-49 -9 -61 -21 -43 -45 11 -15 17 -17 28 -8 12 10 34 11
81 4 4 0 7 -7 7 -15 0 -10 -13 -14 -46 -14 -37 0 -52 -6 -72 -26 -22 -21 -24
-29 -16 -57 14 -48 59 -65 107 -40 29 15 37 16 41 5 3 -8 19 -14 35 -14 25 0
29 4 27 23 -1 13 -5 27 -8 32 -3 6 -6 32 -7 59 -1 76 -50 110 -134 96z m57
-116 c22 -8 20 -31 -4 -44 -14 -8 -26 -8 -40 0 -25 13 -25 26 -2 39 20 12 25
13 46 5z"/>
<path d="M663 429 c-18 -5 -33 -15 -33 -22 0 -7 -5 -4 -11 6 -12 20 -55 23
-61 5 -2 -7 -4 -53 -4 -103 l1 -90 33 -3 32 -3 0 63 c0 68 5 81 34 92 28 10
36 -9 36 -87 l0 -68 32 3 33 3 0 61 c1 62 15 94 41 94 21 0 30 -30 29 -98 l-1
-63 30 3 c31 3 31 3 33 68 3 89 -5 128 -27 135 -42 13 -59 12 -85 -5 -26 -17
-28 -17 -46 1 -21 21 -21 21 -66 8z"/>
<path d="M993 428 c-101 -27 -96 -185 7 -207 41 -9 93 5 116 30 16 17 15 19
-6 27 -16 6 -33 4 -51 -5 -31 -15 -69 -4 -69 21 0 9 20 12 75 12 l75 -1 0 33
c0 35 -44 91 -72 93 -7 0 -20 2 -28 3 -8 2 -29 -1 -47 -6z m65 -50 c23 -23 12
-33 -33 -33 -50 0 -55 7 -23 29 27 19 40 20 56 4z"/>
<path d="M1225 432 c-45 -9 -71 -63 -47 -98 11 -16 48 -34 71 -34 23 0 29 -28
8 -36 -7 -2 -29 2 -49 10 -32 14 -37 14 -42 0 -10 -26 -7 -31 23 -44 52 -21
102 -15 128 15 38 44 25 76 -42 98 -49 17 -64 53 -19 44 16 -3 36 -8 45 -12
21 -8 34 24 17 41 -15 14 -63 22 -93 16z"/>
<path d="M2121 424 c-32 -14 -36 -21 -22 -42 6 -10 13 -11 34 -1 32 14 77 4
77 -17 0 -12 -7 -15 -26 -11 -15 3 -42 -1 -60 -9 -57 -24 -66 -71 -20 -111 26
-22 49 -22 94 0 17 8 25 8 34 -1 7 -7 23 -12 36 -12 23 0 24 3 18 38 -4 20 -9
58 -10 85 -3 46 -30 85 -60 88 -6 1 -23 2 -38 3 -14 2 -40 -3 -57 -10z m89
-124 c0 -22 -34 -44 -56 -36 -17 6 -19 43 -3 48 35 12 59 7 59 -12z"/>
<path d="M449 410 c0 -11 0 -49 0 -85 0 -110 -2 -105 31 -105 l30 0 0 105 0
105 -30 0 c-23 0 -30 -5 -31 -20z"/>
<path d="M1980 325 l0 -106 32 3 33 3 0 100 0 100 -32 3 -33 3 0 -106z"/>
<path d="M90 130 c0 -5 7 -10 15 -10 12 0 14 -8 10 -31 -4 -22 -2 -30 7 -26 7
2 12 10 10 17 -1 7 4 23 13 36 15 24 15 24 -20 24 -19 0 -35 -4 -35 -10z"/>
<path d="M170 100 c0 -37 13 -55 22 -29 3 9 10 8 25 -2 17 -10 27 -10 48 -1
21 10 31 10 41 1 23 -19 26 -4 8 35 -22 45 -37 46 -53 1 -13 -37 -37 -49 -28
-14 9 33 -3 49 -34 49 -27 0 -29 -3 -29 -40z m45 10 c-3 -5 -10 -10 -16 -10
-5 0 -9 5 -9 10 0 6 7 10 16 10 8 0 12 -4 9 -10z"/>
<path d="M340 99 c0 -39 1 -40 33 -37 28 3 32 7 33 33 1 33 -10 45 -43 45 -20
0 -23 -5 -23 -41z m40 21 c0 -5 -5 -10 -11 -10 -5 0 -7 5 -4 10 3 6 8 10 11
10 2 0 4 -4 4 -10z m10 -30 c0 -5 -8 -10 -17 -10 -15 0 -16 2 -3 10 19 12 20
12 20 0z"/>
<path d="M437 111 c-25 -42 -22 -53 9 -39 18 8 28 9 32 1 4 -5 23 -10 42 -9
33 1 35 3 38 39 3 35 2 37 -25 37 -25 -1 -26 -2 -10 -14 25 -19 22 -46 -6 -46
-16 0 -26 9 -34 30 -14 38 -24 38 -46 1z"/>
<path d="M592 127 c-17 -20 -26 -67 -13 -67 6 0 11 5 11 10 0 14 38 12 43 -2
2 -7 7 -10 11 -7 9 9 -20 79 -32 79 -5 0 -14 -6 -20 -13z m28 -21 c0 -3 -4 -8
-10 -11 -5 -3 -10 -1 -10 4 0 6 5 11 10 11 6 0 10 -2 10 -4z"/>
<path d="M660 100 c0 -22 5 -40 10 -40 6 0 10 10 10 22 l0 21 19 -22 c11 -13
24 -20 28 -18 14 9 9 70 -6 75 -10 3 -12 -1 -8 -12 8 -20 -6 -21 -23 -1 -21
25 -30 17 -30 -25z"/>
<path d="M750 100 c0 -40 1 -41 31 -38 39 4 59 30 43 56 -6 9 -25 18 -43 20
-30 3 -31 2 -31 -38z m55 0 c0 -8 -8 -16 -17 -18 -13 -2 -18 3 -18 18 0 15 5
20 18 18 9 -2 17 -10 17 -18z"/>
<path d="M853 133 c-18 -7 -16 -48 2 -63 20 -16 61 -5 67 18 10 37 -28 62 -69
45z m47 -34 c0 -25 -33 -22 -38 4 -2 12 3 17 17 17 15 0 21 -6 21 -21z"/>
<path d="M971 98 c1 -24 3 -35 6 -25 2 9 9 14 14 11 6 -3 19 2 30 12 23 21 9
44 -27 44 -22 0 -24 -4 -23 -42z m47 15 c2 -8 -5 -13 -17 -13 -12 0 -21 6 -21
16 0 18 31 15 38 -3z"/>
<path d="M1056 105 c-10 -20 -15 -39 -12 -42 3 -4 6 -1 6 5 0 13 46 17 53 5 2
-5 2 -1 -1 7 -2 8 -5 21 -6 28 -6 33 -24 32 -40 -3z m31 0 c0 -8 -4 -15 -9
-15 -4 0 -8 7 -8 15 0 8 4 15 8 15 5 0 9 -7 9 -15z"/>
<path d="M1131 98 c0 -28 3 -37 8 -25 8 21 21 21 36 0 8 -11 11 -5 10 24 0 34
-3 38 -27 41 -27 3 -28 1 -27 -40z m45 21 c7 -12 -15 -31 -28 -23 -4 3 -8 12
-8 20 0 17 26 19 36 3z"/>
<path d="M1216 104 c-9 -20 -14 -39 -11 -42 3 -3 5 0 5 6 0 16 43 15 59 -1 9
-8 8 0 -3 27 -9 21 -16 40 -16 42 0 2 -4 4 -8 4 -5 0 -16 -16 -26 -36z m34 1
c0 -8 -7 -15 -15 -15 -9 0 -12 6 -9 15 4 8 10 15 15 15 5 0 9 -7 9 -15z"/>
<path d="M1320 120 c0 -11 4 -20 9 -20 5 0 7 9 4 20 -3 11 -7 20 -9 20 -2 0
-4 -9 -4 -20z"/>
<path d="M1394 104 c-8 -20 -13 -38 -11 -41 3 -2 10 11 16 29 9 26 14 30 21
18 6 -9 5 -17 -3 -22 -8 -5 -7 -8 5 -8 9 0 19 -6 21 -12 4 -10 6 -10 6 0 1 15
-27 72 -35 72 -3 0 -12 -16 -20 -36z"/>
<path d="M1500 120 c-15 -28 4 -60 35 -60 13 0 27 4 30 10 3 6 -4 10 -18 10
-13 0 -26 3 -30 6 -11 11 5 34 24 34 10 0 19 5 19 10 0 19 -49 10 -60 -10z"/>
<path d="M1583 128 c-32 -40 33 -94 65 -55 22 26 2 67 -32 67 -13 0 -28 -6
-33 -12z m55 -25 c5 -18 -28 -29 -38 -12 -5 7 -6 17 -3 22 7 12 35 5 41 -10z"/>
<path d="M1670 100 c0 -22 5 -40 10 -40 6 0 10 7 10 16 0 13 3 14 13 5 10 -8
17 -7 25 1 9 9 12 8 12 -6 0 -10 6 -16 13 -13 7 2 11 17 9 38 -5 44 -8 46 -30
19 l-19 -24 -12 22 c-18 34 -31 26 -31 -18z"/>
<path d="M1779 135 c-12 -55 26 -96 59 -63 14 14 16 68 2 68 -5 0 -10 -14 -10
-31 0 -38 -24 -35 -28 4 -3 23 -19 38 -23 22z"/>
<path d="M1865 108 c4 -47 4 -48 14 -48 6 0 8 10 6 21 l-4 22 23 -22 c13 -13
26 -19 28 -14 9 17 8 73 -2 73 -5 0 -10 -10 -10 -22 l0 -22 -16 22 c-23 33
-42 28 -39 -10z"/>
<path d="M1953 100 c2 -50 19 -47 22 3 2 25 -1 37 -10 37 -9 0 -13 -13 -12
-40z"/>
<path d="M1990 100 c0 -34 3 -40 21 -40 33 0 59 19 59 44 0 25 -17 36 -56 36
-21 0 -24 -4 -24 -40z m60 5 c0 -16 -27 -32 -37 -22 -3 4 -3 13 0 22 8 20 37
20 37 0z"/>
<path d="M2093 105 c-16 -34 -10 -63 7 -35 8 13 13 13 31 2 29 -18 33 -10 15
32 -19 45 -32 45 -53 1z m37 1 c0 -3 -4 -8 -10 -11 -5 -3 -10 -1 -10 4 0 6 5
11 10 11 6 0 10 -2 10 -4z"/>
<path d="M2170 100 c0 -34 3 -40 21 -40 31 0 59 18 59 38 0 26 -20 42 -52 42
-26 0 -28 -3 -28 -40z m58 3 c-5 -26 -38 -29 -38 -4 0 15 6 21 21 21 14 0 19
-5 17 -17z"/>
<path d="M1323 80 c4 -18 47 -27 47 -10 0 7 -7 9 -17 6 -9 -4 -20 -1 -25 6 -7
10 -9 9 -5 -2z"/>
</g>
</svg>
